# xmcd
# Copyright (c) 1998 CDDB Inc.
#
# Track frame offsets:
#	150
#	12857
#	32817
#
# Disc length: 895 seconds
#
# Revision: 1
# Processed by: cddbd v1.4PL0 Copyright (c) Steve Scherf et al.
# Submitted via: audiograbber 1.70
#
DISCID=19037d03
DTITLE=Harry Connick Jr. - A Wink And A Smile
DYEAR=1900
DGENRE=
TTITLE0=A Wink And A Smile
TTITLE1=Parle Plus Bas
TTITLE2=St James Infirmary Blues - Just A Closer Walk With Thee
EXTD=
EXTT0=
EXTT1=
EXTT2=
PLAYORDER=
